<svg xmlns="http://www.w3.org/2000/svg" width="30" height="30" viewBox="0 0 30 30">
    <path fill="#FFF" fill-rule="evenodd" d="M18.033 10.366l-4.866 10.5c0-.5.033-1.333.033-2.366l1.066-9.3c2.335.032 3.767 1.166 3.767 1.166zm-6.099-1.2c.566-.032 1.1-.032 1.566 0l-.533 5.334c-.167-1.732-.5-3.6-1.033-5.333zM23.9 18.233c-.866.268-1.732.567-2.7.935 0 0-2.8 1.434-4.967 2.333l5.702-7.167c.834 1.233 1.465 2.601 1.965 3.9zm3.667 4.968c-.167-.9-.366-1.834-.667-2.7a26.335 26.335 0 0 1 2.167-.3c-.366 1.068-.9 2.068-1.5 3zm-13.2-.932s-.7.232-1.033-.134l5.435-11.235c.933.7 1.767 1.5 2.5 2.434l-6.567 8.8c-.135.067-.234.1-.335.135zM.4 11.566A15.186 15.186 0 0 1 2.866 6.2C2.2 7.9 1.5 9.766 1 11.066c-.2.134-.434.333-.6.5zm.768 2.035C2.566 12.5 3.899 11.634 5.2 10.967l5.133 1.533 1.033 2.6c.167 1.634.3 3.7.167 5.4 0 0-.3 3.3.9 3.7 0 0 1.3 1.267 4.6-.3 0 0 3.434-1.8 7.7-2.935.666 2.533.833 4.467.833 4.634C22.899 28.333 19.134 30 15 30 6.732 30 0 23.268 0 15v-.5c.6.1 1.167-.9 1.167-.9zm10.065-6.235c-.3-.7-.7-1.366-1.1-1.967 0 0-1.134-1.767-2.833-3.267A15.104 15.104 0 0 1 15 0c8.3 0 15 6.732 15 15 0 .8-.066 1.533-.167 2.268a25.178 25.178 0 0 0-3.899.433c-.866-2.1-1.666-3.533-1.666-3.533s-4-7.4-13.036-6.802zm-.232 4.3l-.3-.1-.867-2.134c.2-.033.334-.066.533-.1.268.7.5 1.501.634 2.335zm-1.833-2.1l.732 1.8-3.5-.899c.934-.401 1.869-.7 2.768-.901zM8.1 5.8c.467.533.934 1.134 1.366 1.8-1.667.3-3.1.7-4.333 1.168L8.1 5.8zm-5.667 4.266l2.134-5.834c.3-.3.6-.565.9-.833a15.434 15.434 0 0 1 2.065 1.733l-3.7 4.201c-.533.268-1.033.533-1.399.733z"/>
</svg>